<svg width="276" height="276" viewBox="0 0 276 276" fill="none" xmlns="http://www.w3.org/2000/svg">
<path d="M246.5 99.5L268 91M246.5 178L268 185.5M30.5 178L8.5 185.5M30.5 95.5L8.5 87" stroke="white" stroke-width="8" stroke-linecap="round"/>
<path d="M81 10L92.5 32" stroke="white" stroke-width="8" stroke-linecap="round"/>
<path d="M192 9L181 29.5" stroke="white" stroke-width="8" stroke-linecap="round"/>
<path d="M84 266L94 245" stroke="white" stroke-width="8" stroke-linecap="round"/>
<path d="M184 245.5L194 265" stroke="white" stroke-width="8" stroke-linecap="round"/>
<path d="M87.0892 136.995H120C125.523 136.995 130 141.472 130 146.995V208.795C130 214.941 124.505 219.622 118.621 217.85C92.1436 209.877 54.3607 186.53 54.0029 136.995C53.486 65.4187 121.211 54.5268 130 55.5641" stroke="white" stroke-width="8" stroke-linecap="round"/>
<path d="M145 207.584V68.1993C145 59.3248 153.175 52.7554 161.416 56.0484C187.853 66.6123 221.659 91.6169 220.99 137.734C220.325 183.548 187.34 208.759 161.536 219.624C153.293 223.096 145 216.529 145 207.584Z" stroke="white" stroke-width="8"/>
</svg>
